# xmcd
#
# Track frame offsets:
#	150
#	21755
#	46052
#	63555
#	115370
#	136251
#	158415
#	170550
#	187455
#	233543
#	258085
#	276298
#
# Disc length: 3976 seconds
#
# Revision: 0
# Processed by: cddbd v1.5.2PL0 Copyright (c) Steve Scherf et al.
# Submitted via: EZCDAudioConverter 1.1.0.1
#
DISCID=a10f860c
DTITLE=Various Artist - Blues Deluxe
DYEAR=2012
DGENRE=Blues
TTITLE0=B.B. King - Nobody loves me but my mother
TTITLE1=Albert King - Born under a bad sign
TTITLE2=Muddy Waters - Mannish boy
TTITLE3=Jimi Hendrix Experience - Red House
TTITLE4=John Lee Hooker - Crawling King Snake
TTITLE5=Sonny Boy Williamson and The Animals - Boom Boom
TTITLE6=Nina Simone - Backlash Blues
TTITLE7=The Yardbirds feat. Eric Clapton - Stormy Monday Blues
TTITLE8=Grateful Dead - Viola Lee Blues
TTITLE9=Eric Bell (Thin Lizzy) - Things i used to do
TTITLE10=Sleepy Labeef - Milk cow blues
TTITLE11=B.B. King - Everyday i have the blues
EXTD=
EXTT0=
EXTT1=
EXTT2=
EXTT3=
EXTT4=
EXTT5=
EXTT6=
EXTT7=
EXTT8=
EXTT9=
EXTT10=
EXTT11=
PLAYORDER=
